<?xml version="1.0" encoding="UTF-8"?>
<svg version="1.1" xmlns="http://www.w3.org/2000/svg" width="415" height="307">
<path d="M0 0 C92.4 0 184.8 0 280 0 C280 70.95 280 141.9 280 215 C187.6 215 95.2 215 0 215 C0 144.05 0 73.1 0 0 Z " fill="#017CBF" transform="translate(135,0)"/>
<path d="M0 0 C29.04 0 58.08 0 88 0 C88 70.95 88 141.9 88 215 C58.96 215 29.92 215 0 215 C0 144.05 0 73.1 0 0 Z " fill="#49D2BC" transform="translate(46,0)"/>
<path d="M0 0 C14.52 0 29.04 0 44 0 C44 70.95 44 141.9 44 215 C29.48 215 14.96 215 0 215 C0 144.05 0 73.1 0 0 Z " fill="#8EDEB8" transform="translate(0,0)"/>
<path d="M0 0 C6.18412968 4.24929307 10.50855577 9.4730852 12 17 C12.69251353 24.10677823 11.9000887 29.42041228 8.6796875 35.80859375 C7.74016474 38.01797909 7.74016474 38.01797909 8.8828125 40.1640625 C9.25148437 40.76992188 9.62015625 41.37578125 10 42 C10 45.41512157 8.68700265 46.32011092 6.25 48.8125 C3 51 3 51 0.1875 50.9375 C-2 50 -2 50 -3 48 C-3.68707031 48.15726562 -4.37414062 48.31453125 -5.08203125 48.4765625 C-13.70745081 50.02382652 -22.10717429 50.10351201 -29.8125 45.6171875 C-35.60584935 41.33424709 -40.01976735 35.9890564 -42 29 C-42.93813885 19.44683957 -41.8640779 12.26611502 -35.8125 4.75 C-26.46026821 -5.33535165 -11.68665366 -7.13570724 0 0 Z M-25 13 C-27.96720042 17.72897566 -28.42657927 21.53801577 -27.57421875 26.91796875 C-26.71242358 30.04270906 -25.37456819 31.8233125 -23 34 C-20.24077693 35.51757269 -18.80602278 36.1307064 -15.6875 35.625 C-15.130625 35.41875 -14.57375 35.2125 -14 35 C-14.66 34.01 -15.32 33.02 -16 32 C-16.66 32 -17.32 32 -18 32 C-16.59070303 28.52867905 -15.09394917 27.11906726 -11.875 25.25 C-10.78832031 24.60804688 -10.78832031 24.60804688 -9.6796875 23.953125 C-9.12539062 23.63859375 -8.57109375 23.3240625 -8 23 C-6.35 24.65 -4.7 26.3 -3 28 C-1.77939802 22.30385741 -1.77338807 18.81690884 -4.69921875 13.69921875 C-7.43336443 10.127587 -10.63929812 9.20265773 -14.9375 8.5625 C-18.98522153 9.14074593 -21.87717599 10.34127326 -25 13 Z " fill="#001B76" transform="translate(220,256)"/>
<path d="M0 0 C2.09814698 1.64730548 2.90517912 3.03124378 3.890625 5.484375 C4.550625 5.484375 5.210625 5.484375 5.890625 5.484375 C6.5415509 6.73173067 7.18614169 7.98239332 7.828125 9.234375 C8.36759766 10.27851563 8.36759766 10.27851563 8.91796875 11.34375 C11.34273336 16.68017974 10.890625 20.28180882 10.890625 26.484375 C-1.319375 26.484375 -13.529375 26.484375 -26.109375 26.484375 C-22.97761814 32.25697799 -22.97761814 32.25697799 -20.109375 33.484375 C-16.41481027 33.8421027 -12.79874085 33.91581508 -9.109375 33.484375 C-8.42875 32.80375 -7.748125 32.123125 -7.046875 31.421875 C-5.109375 29.484375 -5.109375 29.484375 -2.80078125 29.40625 C1.18780606 29.79989867 5.01729806 30.45328102 8.890625 31.484375 C8.56677966 36.82782315 5.72896414 40.04553647 1.890625 43.484375 C-5.34506352 48.69563803 -12.37425322 49.49227367 -21.109375 48.484375 C-28.16866961 47.05849099 -33.44823465 43.13336291 -37.65625 37.36328125 C-42.1414808 29.69051282 -42.46567481 21.45387877 -40.515625 12.87109375 C-38.1877432 6.63107726 -33.56665729 2.16671596 -28.109375 -1.515625 C-18.76749216 -5.41019741 -8.83057343 -4.73693012 0 0 Z M-26.109375 14.484375 C-18.849375 14.484375 -11.589375 14.484375 -4.109375 14.484375 C-8.31479377 9.38931301 -8.31479377 9.38931301 -12.046875 8.8203125 C-13.0575 8.83320313 -14.068125 8.84609375 -15.109375 8.859375 C-16.12 8.84648437 -17.130625 8.83359375 -18.171875 8.8203125 C-21.90395623 9.38931301 -21.90395623 9.38931301 -26.109375 14.484375 Z " fill="#001A76" transform="translate(320.109375,256.515625)"/>
<path d="M0 0 C3.34157769 1.96523114 5.61742225 3.88916315 7.5625 7.3125 C8.1513136 10.01500345 8.37436482 12.53750615 8.5625 15.3125 C6.29328464 15.44739391 4.0217933 15.54443995 1.75 15.625 C-0.14685547 15.71201172 -0.14685547 15.71201172 -2.08203125 15.80078125 C-5.4375 15.3125 -5.4375 15.3125 -7.38671875 12.79296875 C-7.73347656 11.97441406 -8.08023437 11.15585937 -8.4375 10.3125 C-10.0875 10.6425 -11.7375 10.9725 -13.4375 11.3125 C-13.4375 12.6325 -13.4375 13.9525 -13.4375 15.3125 C-12.35210937 15.67601562 -11.26671875 16.03953125 -10.1484375 16.4140625 C-8.7028079 16.92097158 -7.25751278 17.42883526 -5.8125 17.9375 C-5.09964844 18.17339844 -4.38679688 18.40929687 -3.65234375 18.65234375 C1.44168126 20.47497655 5.49512477 22.7245456 8.5625 27.3125 C9.84678065 33.00200137 9.31749088 38.51939666 7.0625 43.875 C1.85534851 48.95197271 -2.63754177 50.55873552 -9.9375 50.8125 C-15.55342598 50.61727662 -19.98015439 49.85861486 -24.4375 46.3125 C-28.01397053 42.18580324 -29.11798382 38.74427501 -29.4375 33.3125 C-28.4375 32.3125 -28.4375 32.3125 -25.78515625 32.1796875 C-24.70105469 32.18226563 -23.61695313 32.18484375 -22.5 32.1875 C-20.87771484 32.18363281 -20.87771484 32.18363281 -19.22265625 32.1796875 C-16.4375 32.3125 -16.4375 32.3125 -14.4375 33.3125 C-13.8125 35.375 -13.8125 35.375 -13.4375 37.3125 C-11.1275 37.3125 -8.8175 37.3125 -6.4375 37.3125 C-6.4152391 35.38336248 -6.4152391 35.38336248 -7.4375 33.3125 C-9.71036519 32.12251822 -11.79899391 31.19247593 -14.1875 30.3125 C-20.02852222 28.10696879 -24.65694008 25.86463588 -28.3125 20.625 C-29.8200049 16.18623557 -29.83196428 12.79192437 -28.4375 8.3125 C-22.62992003 -1.76821573 -10.42363992 -4.78398399 0 0 Z " fill="#001A75" transform="translate(406.4375,254.6875)"/>
<path d="M0 0 C1.72419682 0.97239298 3.43914612 1.96255146 5.125 3 C4.53216379 6.39192363 3.35756811 8.2107757 1.0625 10.75 C0.51464844 11.36359375 -0.03320312 11.9771875 -0.59765625 12.609375 C-1.01917969 13.06828125 -1.44070313 13.5271875 -1.875 14 C-4.04614797 13.50104053 -5.7546014 13.07057849 -7.6875 11.9375 C-10.92240654 10.55111148 -13.39383558 10.63356164 -16.875 11 C-20.15768978 12.89666521 -21.55679286 14.36358572 -23.25 17.75 C-24.02400721 21.77483749 -24.1121623 25.07019033 -22.875 29 C-20.36239306 32.47330959 -18.7197778 33.74006837 -14.625 35 C-9.91041922 35 -6.21316607 33.74116869 -1.875 32 C-0.69939821 33.26257233 0.46522865 34.53537084 1.625 35.8125 C2.59953125 36.87404297 2.59953125 36.87404297 3.59375 37.95703125 C5.125 40 5.125 40 5.125 43 C-0.76035839 48.27490898 -7.9992018 50.33715053 -15.75 49.9375 C-22.9660928 48.97165373 -29.3728184 46.04035465 -34.3125 40.625 C-40.05087751 33.01717939 -40.73461805 26.41998113 -39.875 17 C-38.75 13.1875 -38.75 13.1875 -36.875 10 C-36.48441406 9.33355469 -36.09382812 8.66710937 -35.69140625 7.98046875 C-27.54253736 -4.46213842 -12.86250019 -6.38574597 0 0 Z " fill="#001A76" transform="translate(273.875,256)"/>
<path d="M0 0 C4.95 0 9.9 0 15 0 C15 20.79 15 41.58 15 63 C10.38 63 5.76 63 1 63 C0 62 0 62 -0.12025452 59.52598572 C-0.11803391 58.42678299 -0.11581329 57.32758026 -0.11352539 56.19506836 C-0.11344986 54.95385727 -0.11337433 53.71264618 -0.11329651 52.43382263 C-0.10818911 51.0691626 -0.1029731 49.70450298 -0.09765625 48.33984375 C-0.095792 46.95121817 -0.09436813 45.56259193 -0.09336853 44.17396545 C-0.08954387 40.51278885 -0.07971403 36.8516517 -0.06866455 33.19049072 C-0.05844932 29.45707737 -0.05387067 25.72365766 -0.04882812 21.99023438 C-0.0380917 14.66013615 -0.02049534 7.33007862 0 0 Z " fill="#001B76" transform="translate(357,241)"/>
<path d="M0 0 C4.95 0 9.9 0 15 0 C15.02255449 8.0665259 15.04091709 16.13302746 15.05181217 24.19957638 C15.05704014 27.94483037 15.06413622 31.69006176 15.07543945 35.43530273 C15.08627141 39.04681687 15.09227749 42.65830921 15.09487724 46.26983833 C15.09673094 47.65060329 15.10035049 49.031367 15.10573006 50.41212273 C15.11294447 52.33975952 15.11340809 54.26741807 15.11352539 56.19506836 C15.115746 57.29427109 15.11796661 58.39347382 15.12025452 59.52598572 C15 62 15 62 14 63 C11.83519203 63.0989294 9.66706215 63.129711 7.5 63.125 C6.3140625 63.12757813 5.128125 63.13015625 3.90625 63.1328125 C1 63 1 63 0 62 C-0.09396057 60.06693502 -0.11743517 58.13041162 -0.11352539 56.19506836 C-0.11344986 54.95385727 -0.11337433 53.71264618 -0.11329651 52.43382263 C-0.10818911 51.0691626 -0.1029731 49.70450298 -0.09765625 48.33984375 C-0.095792 46.95121817 -0.09436813 45.56259193 -0.09336853 44.17396545 C-0.08954387 40.51278885 -0.07971403 36.8516517 -0.06866455 33.19049072 C-0.05844932 29.45707737 -0.05387067 25.72365766 -0.04882812 21.99023438 C-0.0380917 14.66013615 -0.02049534 7.33007862 0 0 Z " fill="#001B77" transform="translate(335,241)"/>
<path d="M0 0 C0.99 0 1.98 0 3 0 C3 70.95 3 141.9 3 215 C-0.35035837 211.64964163 -0.35089196 210.59472216 -0.38724393 206.06405574 C-0.3785054 205.24791323 -0.36976688 204.43177071 -0.36076355 203.59089661 C-0.36332682 202.72262023 -0.3658901 201.85434386 -0.36853105 200.95975608 C-0.37348756 198.0391462 -0.35694527 195.11904889 -0.34057617 192.19848633 C-0.3397303 190.10940056 -0.34020425 188.02031389 -0.34190369 185.93122864 C-0.34276663 180.24969166 -0.3250924 174.56834357 -0.30418181 168.8868506 C-0.28546487 162.95311575 -0.28366851 157.01937688 -0.28010559 151.08561707 C-0.27077046 139.84464706 -0.2461368 128.60376427 -0.21605712 117.36283273 C-0.18255878 104.56737194 -0.16603859 91.77190706 -0.15097082 78.97641337 C-0.11958854 52.65089383 -0.06679952 26.3254518 0 0 Z " fill="#79DCBA" transform="translate(41,0)"/>
<path d="M0 0 C40.59 0 81.18 0 123 0 C123 0.33 123 0.66 123 1 C98.91 1 74.82 1 50 1 C50 1.66 50 2.32 50 3 C33.5 3 17 3 0 3 C0 2.01 0 1.02 0 0 Z " fill="#03B9CB" transform="translate(138,212)"/>
<path d="M0 0 C14.85 0 29.7 0 45 0 C45 0.33 45 0.66 45 1 C43.71311279 1.02505615 42.42622559 1.0501123 41.1003418 1.07592773 C36.33119546 1.17001572 31.56219429 1.27023313 26.79321289 1.37231445 C24.72814324 1.41565803 22.66303788 1.45733352 20.59790039 1.49731445 C17.63156365 1.55503083 14.66540655 1.61872151 11.69921875 1.68359375 C10.31158577 1.70866249 10.31158577 1.70866249 8.8959198 1.73423767 C7.60492119 1.7641555 7.60492119 1.7641555 6.2878418 1.79467773 C5.53061325 1.81022202 4.7733847 1.8257663 3.99320984 1.84178162 C1.79075185 1.93632323 1.79075185 1.93632323 -1 3 C-0.67 2.01 -0.34 1.02 0 0 Z " fill="#5ADDC2" transform="translate(47,212)"/>
<path d="M0 0 C4.29 0 8.58 0 13 0 C13 0.33 13 0.66 13 1 C12.24074219 1.06058594 11.48148438 1.12117187 10.69921875 1.18359375 C9.70535156 1.26738281 8.71148437 1.35117188 7.6875 1.4375 C6.70136719 1.51871094 5.71523438 1.59992188 4.69921875 1.68359375 C1.90624401 1.91812559 1.90624401 1.91812559 -1 3 C-0.67 2.01 -0.34 1.02 0 0 Z " fill="#72E1C0" transform="translate(47,212)"/>
</svg>
